<?xml version="1.0" encoding="UTF-8" standalone="no"?>
<!DOCTYPE svg PUBLIC "-//W3C//DTD SVG 1.1//EN"
 "http://www.w3.org/Graphics/SVG/1.1/DTD/svg11.dtd">
<!-- Generated by graphviz version 5.0.0 (20220707.1540)
 -->
<!-- Title: StorageDiagram Pages: 1 -->
<svg width="1155pt" height="183pt"
 viewBox="0.00 0.00 1154.96 182.60" xmlns="http://www.w3.org/2000/svg" xmlns:xlink="http://www.w3.org/1999/xlink">
<g id="graph0" class="graph" transform="scale(1 1) rotate(0) translate(4 178.6)">
<title>StorageDiagram</title>
<polygon fill="white" stroke="transparent" points="-4,4 -4,-178.6 1150.96,-178.6 1150.96,4 -4,4"/>
<!-- 2 -->
<g id="node1" class="node">
<title>2</title>
<polygon fill="#f2f2f2" stroke="black" points="0,-0.5 0,-174.1 794.12,-174.1 794.12,-0.5 0,-0.5"/>
<text text-anchor="middle" x="397.06" y="-157.5" font-family="Courier New" font-size="14.00">Challenge &lt;&lt;Contract&gt;&gt;</text>
<polyline fill="none" stroke="black" points="0,-149.3 794.12,-149.3 "/>
<text text-anchor="middle" x="24.8" y="-132.7" font-family="Courier New" font-size="14.00">slot</text>
<polyline fill="none" stroke="black" points="0,-124.5 49.61,-124.5 "/>
<text text-anchor="middle" x="24.8" y="-107.9" font-family="Courier New" font-size="14.00">0</text>
<polyline fill="none" stroke="black" points="0,-99.7 49.61,-99.7 "/>
<text text-anchor="middle" x="24.8" y="-83.1" font-family="Courier New" font-size="14.00">1</text>
<polyline fill="none" stroke="black" points="0,-74.9 49.61,-74.9 "/>
<text text-anchor="middle" x="24.8" y="-58.3" font-family="Courier New" font-size="14.00">2&#45;3</text>
<polyline fill="none" stroke="black" points="0,-50.1 49.61,-50.1 "/>
<text text-anchor="middle" x="24.8" y="-33.5" font-family="Courier New" font-size="14.00">4</text>
<polyline fill="none" stroke="black" points="0,-25.3 49.61,-25.3 "/>
<text text-anchor="middle" x="24.8" y="-8.7" font-family="Courier New" font-size="14.00">5</text>
<polyline fill="none" stroke="black" points="49.61,-0.5 49.61,-149.3 "/>
<text text-anchor="middle" x="421.86" y="-132.7" font-family="Courier New" font-size="14.00">type: &lt;inherited contract&gt;.variable (bytes)</text>
<polyline fill="none" stroke="black" points="49.61,-124.5 794.12,-124.5 "/>
<text text-anchor="middle" x="159.32" y="-107.9" font-family="Courier New" font-size="14.00">unallocated (10)</text>
<polyline fill="none" stroke="black" points="269.03,-99.7 269.03,-124.5 "/>
<text text-anchor="middle" x="391.84" y="-107.9" font-family="Courier New" font-size="14.00">address: owner (20)</text>
<polyline fill="none" stroke="black" points="514.65,-99.7 514.65,-124.5 "/>
<text text-anchor="middle" x="654.27" y="-107.9" font-family="Courier New" font-size="14.00">uint16: lastTokenId (2)</text>
<polyline fill="none" stroke="black" points="49.61,-99.7 794.12,-99.7 "/>
<text text-anchor="middle" x="124.82" y="-83.1" font-family="Courier New" font-size="14.00">unallocated (13)</text>
<polyline fill="none" stroke="black" points="200.03,-74.9 200.03,-99.7 "/>
<text text-anchor="middle" x="296.24" y="-83.1" font-family="Courier New" font-size="14.00">uint16: maxSupply (2)</text>
<polyline fill="none" stroke="black" points="392.46,-74.9 392.46,-99.7 "/>
<text text-anchor="middle" x="488.67" y="-83.1" font-family="Courier New" font-size="14.00">bool: saleStarted (1)</text>
<polyline fill="none" stroke="black" points="584.88,-74.9 584.88,-99.7 "/>
<text text-anchor="middle" x="689.5" y="-83.1" font-family="Courier New" font-size="14.00">uint128: saleStart (16)</text>
<polyline fill="none" stroke="black" points="49.61,-74.9 794.12,-74.9 "/>
<text text-anchor="middle" x="421.42" y="-58.3" font-family="Courier New" font-size="14.00">address[2]: minters (64)</text>
<polyline fill="none" stroke="black" points="49.61,-50.1 794.12,-50.1 "/>
<text text-anchor="middle" x="421.52" y="-33.5" font-family="Courier New" font-size="14.00">bytes32: password (32)</text>
<polyline fill="none" stroke="black" points="49.61,-25.3 794.12,-25.3 "/>
<text text-anchor="middle" x="231.32" y="-8.7" font-family="Courier New" font-size="14.00">unallocated (31)</text>
<polyline fill="none" stroke="black" points="413.03,-0.5 413.03,-25.3 "/>
<text text-anchor="middle" x="603.14" y="-8.7" font-family="Courier New" font-size="14.00">bool: isPaused (1)</text>
</g>
<!-- 1 -->
<g id="node2" class="node">
<title>1</title>
<polygon fill="#f2f2f2" stroke="black" points="830.12,-12.7 830.12,-111.9 1146.96,-111.9 1146.96,-12.7 830.12,-12.7"/>
<text text-anchor="middle" x="988.54" y="-95.3" font-family="Courier New" font-size="14.00">address[2]: minters &lt;&lt;Array&gt;&gt;</text>
<polyline fill="none" stroke="black" points="830.12,-87.1 1146.96,-87.1 "/>
<text text-anchor="middle" x="854.92" y="-70.5" font-family="Courier New" font-size="14.00">slot</text>
<polyline fill="none" stroke="black" points="830.12,-62.3 879.72,-62.3 "/>
<text text-anchor="middle" x="854.92" y="-45.7" font-family="Courier New" font-size="14.00">2</text>
<polyline fill="none" stroke="black" points="830.12,-37.5 879.72,-37.5 "/>
<text text-anchor="middle" x="854.92" y="-20.9" font-family="Courier New" font-size="14.00">3</text>
<polyline fill="none" stroke="black" points="879.72,-12.7 879.72,-87.1 "/>
<text text-anchor="middle" x="1013.34" y="-70.5" font-family="Courier New" font-size="14.00">type: variable (bytes)</text>
<polyline fill="none" stroke="black" points="879.72,-62.3 1146.96,-62.3 "/>
<text text-anchor="middle" x="954.93" y="-45.7" font-family="Courier New" font-size="14.00">unallocated (12)</text>
<polyline fill="none" stroke="black" points="1030.14,-37.5 1030.14,-62.3 "/>
<text text-anchor="middle" x="1088.55" y="-45.7" font-family="Courier New" font-size="14.00">address (20)</text>
<polyline fill="none" stroke="black" points="879.72,-37.5 1146.96,-37.5 "/>
<text text-anchor="middle" x="954.93" y="-20.9" font-family="Courier New" font-size="14.00">unallocated (12)</text>
<polyline fill="none" stroke="black" points="1030.14,-12.7 1030.14,-37.5 "/>
<text text-anchor="middle" x="1088.55" y="-20.9" font-family="Courier New" font-size="14.00">address (20)</text>
</g>
<!-- 2&#45;&gt;1 -->
<g id="edge1" class="edge">
<title>2:8&#45;&gt;1</title>
<path fill="none" stroke="black" d="M794.06,-62.3C802.45,-62.3 811.04,-62.3 819.72,-62.3"/>
<polygon fill="black" stroke="black" points="819.94,-65.8 829.94,-62.3 819.94,-58.8 819.94,-65.8"/>
</g>
</g>
</svg>
